<svg width="1064" height="131" viewBox="0 0 1064 131" fill="none" xmlns="http://www.w3.org/2000/svg">
<path d="M0 3.08984H45.77C77.35 3.08984 95.98 12.9598 95.98 45.1498V46.2498C95.98 78.5398 77.39 88.3098 45.81 88.3098H35.82V127.53H0V3.08984ZM43.67 60.8098C53.45 60.8098 58.6 57.1798 58.6 46.3298V45.0798C58.6 34.2798 53.45 30.5798 43.67 30.5798H35.83V60.7998H43.67V60.8098Z" fill="#2E2F33"/>
<path d="M100.93 71.76V58.86C100.93 15.56 117.85 0 153.84 0C189.83 0 206.73 15.56 206.73 58.86V71.76C206.73 115.05 189.81 130.62 153.84 130.62C117.87 130.62 100.93 115.05 100.93 71.76ZM168.87 71.84V58.77C168.87 36.2 165.81 28.65 153.84 28.65C141.87 28.65 138.78 36.2 138.78 58.77V71.84C138.78 94.41 141.9 101.98 153.84 101.98C165.78 101.98 168.87 94.41 168.87 71.84Z" fill="#2E2F33"/>
<path d="M213.77 3.08984H256.91C289.3 3.08984 309.24 8.34984 309.24 36.5298V37.0098C309.17 53.8598 302.64 62.4799 291.7 67.1498C301.84 71.2098 305.35 76.0298 306.84 92.9998L308.14 108.5C309.29 121.82 309.77 124.57 311.51 127.53H274.87C273.71 124.4 273.11 120.96 272.8 116.89L271.22 97.1898C270.17 85.3598 268.39 82.3898 258.61 82.3898H249.6V127.52H213.78V3.08984H213.77ZM257.54 55.6898C268.7 55.6898 272.72 52.5198 272.72 43.2398V42.6998C272.72 33.4598 268.7 30.5098 257.54 30.5098H249.59V55.6898H257.54Z" fill="#2E2F33"/>
<path d="M343.52 32.5898H312.2V3.08984H410.63V32.5998H379.35V127.54H343.53V32.5898H343.52Z" fill="#2E2F33"/>
<path d="M425.88 3.08984H475.1L508.03 127.54H471.03L465.42 102.18H435.52L429.88 127.54H393.03L425.88 3.08984ZM459.58 73.8998L450.55 32.7398H450.32L441.3 73.8998H459.59H459.58Z" fill="#2E2F33"/>
<path d="M513.45 3.08984H549.27V127.54H513.45V3.08984Z" fill="#2E2F33"/>
<path d="M560.29 3.08984H602.69L629.04 85.0499H629.41L627.13 44.7498V3.08984H660.24V127.54H617.85L591.54 50.1298H591.17L593.39 90.5198V127.54H560.28V3.08984H560.29Z" fill="#2E2F33"/>
<path d="M671.24 3.08984H753.91V32.5998H707.06V50.3998H748.46V79.9099H707.06V98.0398H754.52V127.55H671.24V3.08984Z" fill="#2E2F33"/>
<path d="M763.42 3.08984H806.56C838.95 3.08984 858.89 8.34984 858.89 36.5298V37.0098C858.82 53.8598 852.29 62.4799 841.35 67.1498C851.49 71.2098 855 76.0298 856.49 92.9998L857.79 108.5C858.94 121.82 859.42 124.57 861.16 127.53H824.52C823.36 124.4 822.76 120.96 822.45 116.89L820.87 97.1898C819.82 85.3598 818.04 82.3898 808.26 82.3898H799.25V127.52H763.43V3.08984H763.42ZM807.2 55.6898C818.36 55.6898 822.38 52.5198 822.38 43.2398V42.6998C822.38 33.4598 818.36 30.5098 807.2 30.5098H799.25V55.6898H807.2Z" fill="#2E2F33"/>
<path d="M870.36 93.27H904.71V127.53H870.36V93.27Z" fill="#2E2F33"/>
<path d="M914.92 3.08984H949.85V28.7598H914.92V3.08984ZM914.92 35.5798H949.85V127.54H914.92V35.5798Z" fill="#2E2F33"/>
<path d="M958.1 71.76V58.86C958.1 15.57 975.02 0 1011.01 0C1047 0 1063.9 15.56 1063.9 58.86V71.76C1063.9 115.05 1046.98 130.62 1011.01 130.62C975.04 130.62 958.1 115.05 958.1 71.76ZM1026.05 71.84V58.77C1026.05 36.2 1022.99 28.65 1011.02 28.65C999.05 28.65 995.96 36.2 995.96 58.77V71.84C995.96 94.41 999.08 101.98 1011.02 101.98C1022.96 101.98 1026.05 94.41 1026.05 71.84Z" fill="#2E2F33"/>
</svg>
