<svg width="1421" height="507" viewBox="0 0 1421 507" fill="none" xmlns="http://www.w3.org/2000/svg">
<g clip-path="url(#clip0_414_125114)">
<path d="M1119.89 1.0446V9.76338H1128.63C1128.71 6.87373 1128.53 3.93425 1128.63 1.0446C1125.74 1.14425 1122.8 0.969872 1119.91 1.0446H1119.89Z" fill="#C080FF"/>
<path d="M1137.33 9.76292H1146.05V1.01921C1143.16 0.944482 1140.22 1.11885 1137.33 1.01921C1137.43 3.90886 1137.26 6.84833 1137.33 9.73798V9.76292Z" fill="#C080FF"/>
<path d="M1173.45 9.76292H1182.17V1.01921C1179.28 0.944482 1176.34 1.11885 1173.45 1.01921C1173.55 3.90886 1173.38 6.84833 1173.45 9.73798V9.76292Z" fill="#C080FF"/>
<path d="M1190.89 1.0446V9.76338H1199.64C1199.71 6.87373 1199.54 3.93425 1199.64 1.0446C1196.75 1.14425 1193.81 0.969872 1190.92 1.0446H1190.89Z" fill="#C080FF"/>
<path d="M1208.33 9.76292H1217.05V1.01921C1214.16 0.944482 1211.22 1.11885 1208.33 1.01921C1208.43 3.90886 1208.26 6.84833 1208.33 9.73798V9.76292Z" fill="#C080FF"/>
<path d="M1154.77 1.04403V9.76281H1164.76C1164.83 6.87316 1164.66 3.93368 1164.76 1.04403C1161.44 1.11876 1158.11 0.969304 1154.79 1.04403H1154.77Z" fill="#C080FF"/>
<path d="M1244.46 9.76292H1253.18V1.01921C1250.29 0.944482 1247.35 1.11885 1244.46 1.01921C1244.56 3.90886 1244.38 6.84833 1244.46 9.73798V9.76292Z" fill="#C080FF"/>
<path d="M1225.77 1.04403V9.76281H1235.76C1235.84 6.87316 1235.66 3.93368 1235.76 1.04403C1232.45 1.11876 1229.11 0.969304 1225.8 1.04403H1225.77Z" fill="#C080FF"/>
<path d="M1288.06 9.76172C1288.16 12.6264 1288.16 15.6157 1288.06 18.4805C1291.35 18.3808 1294.73 18.3808 1298.02 18.4805C1297.92 15.6157 1297.92 12.6264 1298.02 9.76172C1294.73 9.86136 1291.35 9.86136 1288.06 9.76172Z" fill="#C080FF"/>
<path d="M1298.02 37.1637V45.8825H1306.77C1306.84 42.9929 1306.67 40.0534 1306.77 37.1637C1303.88 37.2634 1300.94 37.089 1298.05 37.1637H1298.02Z" fill="#C080FF"/>
<path d="M1306.75 37.1645C1309.64 37.0649 1312.58 37.0649 1315.47 37.1645C1315.37 33.8763 1315.37 30.4884 1315.47 27.2002C1312.6 27.2999 1309.61 27.2999 1306.75 27.2002C1306.85 30.4884 1306.85 33.8763 1306.75 37.1645Z" fill="#C080FF"/>
<path d="M1261.9 37.1637V45.8825H1270.64C1270.72 42.9929 1270.54 40.0534 1270.64 37.1637C1267.75 37.2634 1264.81 37.089 1261.92 37.1637H1261.9Z" fill="#C080FF"/>
<path d="M1279.34 18.4548C1279.26 21.3444 1279.44 24.2839 1279.34 27.1735C1282.23 27.0739 1285.17 27.2483 1288.06 27.1735C1288.13 24.2839 1287.96 21.3444 1288.06 18.4548C1285.17 18.5544 1282.23 18.38 1279.34 18.4548Z" fill="#C080FF"/>
<path d="M1270.62 27.2002C1270.72 30.4884 1270.72 33.8763 1270.62 37.1645C1273.51 37.0649 1276.45 37.0649 1279.34 37.1645C1279.24 33.8763 1279.24 30.4884 1279.34 27.2002C1276.47 27.2999 1273.48 27.2999 1270.62 27.2002Z" fill="#C080FF"/>
<path d="M1270.62 18.4551H1261.9V27.1988C1264.79 27.2736 1267.73 27.0992 1270.62 27.1988C1270.52 24.3092 1270.69 21.3697 1270.62 18.4801V18.4551Z" fill="#C080FF"/>
<path d="M1298.02 27.1989C1300.91 27.2737 1303.85 27.0993 1306.74 27.1989C1306.64 24.3093 1306.82 21.3698 1306.74 18.4802C1303.85 18.4054 1300.91 18.5798 1298.02 18.4802C1298.12 21.3698 1297.95 24.3093 1298.02 27.1989Z" fill="#C080FF"/>
<path d="M1279.34 45.882H1288.06V37.1383C1285.17 37.0636 1282.23 37.238 1279.34 37.1383C1279.44 40.028 1279.26 42.9674 1279.34 45.8571V45.882Z" fill="#C080FF"/>
<path d="M1324.18 27.2017V18.458H1315.44C1315.36 21.3477 1315.54 24.2872 1315.44 27.1768C1318.33 27.0772 1321.27 27.2515 1324.16 27.1768L1324.18 27.2017Z" fill="#C080FF"/>
<path d="M1315.46 45.882H1324.18V37.1383C1321.29 37.0636 1318.35 37.238 1315.46 37.1383C1315.56 40.028 1315.39 42.9674 1315.46 45.8571V45.882Z" fill="#C080FF"/>
<path d="M1261.9 1.0446V9.76338H1270.64C1270.72 6.87373 1270.54 3.93425 1270.64 1.0446C1267.75 1.14425 1264.81 0.969872 1261.92 1.0446H1261.9Z" fill="#C080FF"/>
<path d="M1288.06 1.02116C1285.17 0.946434 1282.23 1.12081 1279.34 1.02116C1279.44 3.91081 1279.26 6.85029 1279.34 9.73994C1282.23 9.81467 1285.17 9.6403 1288.06 9.73994C1287.96 6.85029 1288.13 3.91081 1288.06 1.02116Z" fill="#C080FF"/>
<path d="M1298.02 1.02116C1297.95 3.91081 1298.12 6.85029 1298.02 9.73994C1300.91 9.6403 1303.85 9.81467 1306.74 9.73994C1306.82 6.85029 1306.64 3.91081 1306.74 1.02116C1303.85 1.12081 1300.91 0.946434 1298.02 1.02116Z" fill="#C080FF"/>
<path d="M1315.46 9.76292H1324.18V1.01921C1321.29 0.944482 1318.35 1.11885 1315.46 1.01921C1315.56 3.90886 1315.39 6.84833 1315.46 9.73798V9.76292Z" fill="#C080FF"/>
<path d="M1341.62 18.4551H1332.9V27.1988C1335.79 27.2736 1338.73 27.0992 1341.62 27.1988C1341.52 24.3092 1341.7 21.3697 1341.62 18.4801V18.4551Z" fill="#C080FF"/>
<path d="M1350.34 45.8821H1360.31V37.1384C1356.99 37.0886 1353.66 37.2381 1350.34 37.1384C1350.44 40.0281 1350.27 42.9675 1350.34 45.8572V45.8821Z" fill="#C080FF"/>
<path d="M1341.62 27.2002C1341.72 30.4884 1341.72 33.8763 1341.62 37.1645C1344.51 37.0649 1347.45 37.0898 1350.34 37.1645C1350.24 33.8763 1350.24 30.4884 1350.34 27.2002C1347.45 27.275 1344.51 27.2999 1341.62 27.2002Z" fill="#C080FF"/>
<path d="M1360.31 9.76172C1360.41 12.6264 1360.41 15.6157 1360.31 18.4805C1363.2 18.4057 1366.14 18.3808 1369.03 18.4805C1368.93 15.6157 1368.93 12.6264 1369.03 9.76172C1366.14 9.86136 1363.2 9.83645 1360.31 9.76172Z" fill="#C080FF"/>
<path d="M1332.9 37.1637V45.8825H1341.65C1341.72 42.9929 1341.55 40.0534 1341.65 37.1637C1338.76 37.2634 1335.82 37.089 1332.93 37.1637H1332.9Z" fill="#C080FF"/>
<path d="M1350.34 18.4548C1350.27 21.3444 1350.44 24.2839 1350.34 27.1735C1353.66 27.0739 1356.99 27.2483 1360.31 27.1735C1360.38 24.2839 1360.21 21.3444 1360.31 18.4548C1356.99 18.5544 1353.66 18.38 1350.34 18.4548Z" fill="#C080FF"/>
<path d="M1332.9 1.0446V9.76338H1341.65C1341.72 6.87373 1341.55 3.93425 1341.65 1.0446C1338.76 1.14425 1335.82 0.969872 1332.93 1.0446H1332.9Z" fill="#C080FF"/>
<path d="M1360.31 1.01634C1356.99 0.96652 1353.66 1.11598 1350.34 1.01634C1350.44 3.90599 1350.27 6.84547 1350.34 9.73512C1353.66 9.78494 1356.99 9.63547 1360.31 9.73512C1360.21 6.84547 1360.38 3.90599 1360.31 1.01634Z" fill="#C080FF"/>
<path d="M1386.47 54.5788C1386.4 57.4685 1386.57 60.4079 1386.47 63.2976C1389.36 63.1979 1392.3 63.3723 1395.19 63.2976C1395.27 60.4079 1395.09 57.4685 1395.19 54.5788C1392.3 54.6784 1389.36 54.5041 1386.47 54.5788Z" fill="#C080FF"/>
<path d="M1386.47 80.7591H1395.19V72.0153C1392.3 71.9406 1389.36 72.115 1386.47 72.0153C1386.57 74.905 1386.4 77.8445 1386.47 80.7341V80.7591Z" fill="#C080FF"/>
<path d="M1369.03 72.0407V80.7595H1377.78C1377.85 77.8698 1377.68 74.9303 1377.78 72.0407C1374.89 72.1403 1371.95 71.966 1369.06 72.0407H1369.03Z" fill="#C080FF"/>
<path d="M1377.75 54.5791H1369.03V63.3228C1371.92 63.3975 1374.86 63.2231 1377.75 63.3228C1377.65 60.4331 1377.83 57.4936 1377.75 54.604V54.5791Z" fill="#C080FF"/>
<path d="M1403.91 72.0407V80.7595H1412.66C1412.73 77.8698 1412.56 74.9303 1412.66 72.0407C1409.77 72.1403 1406.83 71.966 1403.94 72.0407H1403.91Z" fill="#C080FF"/>
<path d="M1403.91 63.323C1406.8 63.3977 1409.74 63.2233 1412.63 63.323C1412.53 60.4333 1412.7 57.4938 1412.63 54.6042C1409.74 54.5295 1406.8 54.7038 1403.91 54.6042C1404.01 57.4938 1403.83 60.4333 1403.91 63.323Z" fill="#C080FF"/>
<path d="M1412.63 72.0381C1415.52 71.9384 1418.46 71.9633 1421.35 72.0381C1421.25 69.1484 1421.25 66.209 1421.35 63.3193C1418.46 63.394 1415.52 63.4189 1412.63 63.3193C1412.73 66.184 1412.73 69.1733 1412.63 72.0381Z" fill="#C080FF"/>
<path d="M1377.75 63.3193C1377.85 66.209 1377.85 69.1484 1377.75 72.0381C1380.64 71.9384 1383.58 71.9384 1386.47 72.0381C1386.37 69.1733 1386.37 66.184 1386.47 63.3193C1383.61 63.4189 1380.62 63.4189 1377.75 63.3193Z" fill="#C080FF"/>
<path d="M1395.19 54.6036C1398.05 54.504 1401.04 54.504 1403.91 54.6036C1403.81 51.7389 1403.81 48.7496 1403.91 45.8848C1401.04 45.9845 1398.05 45.9845 1395.19 45.8848C1395.29 48.7496 1395.29 51.7389 1395.19 54.6036Z" fill="#C080FF"/>
<path d="M1369.03 37.1637V45.8825H1377.78C1377.85 42.9929 1377.68 40.0534 1377.78 37.1637C1374.89 37.2634 1371.95 37.089 1369.06 37.1637H1369.03Z" fill="#C080FF"/>
<path d="M1386.47 27.2002C1383.61 27.2999 1380.62 27.2999 1377.75 27.2002C1377.85 30.4884 1377.85 33.8763 1377.75 37.1645C1380.62 37.0649 1383.61 37.0649 1386.47 37.1645C1386.37 33.8763 1386.37 30.4884 1386.47 27.2002Z" fill="#C080FF"/>
<path d="M1395.19 27.2017V18.458H1386.44C1386.37 21.3477 1386.54 24.2872 1386.44 27.1768C1389.33 27.0772 1392.27 27.2515 1395.16 27.1768L1395.19 27.2017Z" fill="#C080FF"/>
<path d="M1377.75 18.4548C1374.86 18.38 1371.92 18.5544 1369.03 18.4548C1369.13 21.3444 1368.95 24.2839 1369.03 27.1735C1371.92 27.2483 1374.86 27.0739 1377.75 27.1735C1377.65 24.2839 1377.82 21.3444 1377.75 18.4548Z" fill="#C080FF"/>
<path d="M1369.03 1.02116C1368.95 3.91081 1369.13 6.85029 1369.03 9.73994C1371.92 9.6403 1374.86 9.81467 1377.75 9.73994C1377.82 6.85029 1377.65 3.91081 1377.75 1.02116C1374.86 1.12081 1371.92 0.946434 1369.03 1.02116Z" fill="#C080FF"/>
<path d="M1386.47 9.76292H1395.19V1.01921C1392.3 0.944482 1389.36 1.11885 1386.47 1.01921C1386.57 3.90886 1386.4 6.84833 1386.47 9.73798V9.76292Z" fill="#C080FF"/>
<path d="M1395.19 37.1393C1392.3 37.0646 1389.36 37.239 1386.47 37.1393C1386.57 40.029 1386.4 42.9685 1386.47 45.8581C1389.36 45.9328 1392.3 45.7585 1395.19 45.8581C1395.09 42.9685 1395.27 40.029 1395.19 37.1393Z" fill="#C080FF"/>
<path d="M1403.91 37.1393C1403.83 40.029 1404.01 42.9685 1403.91 45.8581C1406.8 45.7585 1409.74 45.9328 1412.63 45.8581C1412.7 42.9685 1412.53 40.029 1412.63 37.1393C1409.74 37.239 1406.8 37.0646 1403.91 37.1393Z" fill="#C080FF"/>
<path d="M1412.63 18.4551H1403.89V27.1988C1406.78 27.2736 1409.71 27.0992 1412.61 27.1988C1412.51 24.3092 1412.68 21.3697 1412.61 18.4801L1412.63 18.4551Z" fill="#C080FF"/>
<path d="M1412.63 27.2002C1412.73 30.4884 1412.73 33.8763 1412.63 37.1645C1415.52 37.0649 1418.46 37.0898 1421.35 37.1645C1421.25 33.8763 1421.25 30.4884 1421.35 27.2002C1418.46 27.275 1415.52 27.2999 1412.63 27.2002Z" fill="#C080FF"/>
<path d="M1403.91 1.0446V9.76338H1412.66C1412.73 6.87373 1412.56 3.93425 1412.66 1.0446C1409.77 1.14425 1406.83 0.969872 1403.94 1.0446H1403.91Z" fill="#C080FF"/>
<path d="M1350.34 160.472V170.436H1360.31V160.472H1350.34Z" fill="#C080FF"/>
<path d="M1350.34 427.02V436.984H1360.31V427.02H1350.34Z" fill="#C080FF"/>
<path d="M1350.34 498.016V507.98H1360.31V498.016H1350.34Z" fill="#C080FF"/>
<path d="M1154.77 231.468V241.432H1164.73V231.468H1154.77Z" fill="#C080FF"/>
<path d="M1154.77 160.472V170.436H1164.73V160.472H1154.77Z" fill="#C080FF"/>
<path d="M1225.77 160.472V170.436H1235.74V160.472H1225.77Z" fill="#C080FF"/>
<path d="M1225.77 231.468V241.432H1235.74V231.468H1225.77Z" fill="#C080FF"/>
<path d="M1403.91 108.16V116.879H1412.66C1412.73 113.989 1412.56 111.049 1412.66 108.16C1409.77 108.259 1406.83 108.085 1403.94 108.16H1403.91Z" fill="#C080FF"/>
<path d="M1421.35 98.1973C1418.46 98.272 1415.52 98.2969 1412.63 98.1973C1412.73 101.485 1412.73 104.873 1412.63 108.161C1415.52 108.062 1418.46 108.086 1421.35 108.161C1421.25 104.873 1421.25 101.485 1421.35 98.1973Z" fill="#C080FF"/>
<path d="M1412.63 89.4521H1403.89V98.1958C1406.78 98.2705 1409.71 98.0962 1412.61 98.1958C1412.51 95.3062 1412.68 92.3667 1412.61 89.477L1412.63 89.4521Z" fill="#C080FF"/>
<path d="M1403.91 160.472V170.436H1412.66V160.472H1403.91Z" fill="#C080FF"/>
<path d="M1403.91 231.468V241.432H1412.66V231.468H1403.91Z" fill="#C080FF"/>
<path d="M1386.47 160.472V170.436H1395.21V160.472H1386.47Z" fill="#C080FF"/>
<path d="M1386.47 231.468V241.432H1395.21V231.468H1386.47Z" fill="#C080FF"/>
<path d="M1386.47 116.88H1395.19V108.136C1392.3 108.061 1389.36 108.235 1386.47 108.136C1386.57 111.025 1386.4 113.965 1386.47 116.855V116.88Z" fill="#C080FF"/>
<path d="M1369.03 108.16V116.879H1377.78C1377.85 113.989 1377.68 111.049 1377.78 108.16C1374.89 108.259 1371.95 108.085 1369.06 108.16H1369.03Z" fill="#C080FF"/>
<path d="M1386.47 98.1973C1383.58 98.2969 1380.64 98.2969 1377.75 98.1973C1377.85 101.485 1377.85 104.873 1377.75 108.161C1380.64 108.062 1383.58 108.062 1386.47 108.161C1386.37 104.873 1386.37 101.485 1386.47 98.1973Z" fill="#C080FF"/>
<path d="M1395.19 98.1939V89.4502H1386.44C1386.37 92.3399 1386.54 95.2793 1386.44 98.169C1389.33 98.0694 1392.27 98.2437 1395.16 98.169L1395.19 98.1939Z" fill="#C080FF"/>
<path d="M1377.75 89.4521H1369.03V98.1958C1371.92 98.2705 1374.86 98.0962 1377.75 98.1958C1377.65 95.3062 1377.83 92.3667 1377.75 89.477V89.4521Z" fill="#C080FF"/>
<path d="M1369.03 160.472V170.436H1377.78V160.472H1369.03Z" fill="#C080FF"/>
<path d="M1369.03 231.468V241.432H1377.78V231.468H1369.03Z" fill="#C080FF"/>
<path d="M1332.9 72.0407V80.7595H1341.65C1341.72 77.8698 1341.55 74.9303 1341.65 72.0407C1338.76 72.1403 1335.82 71.966 1332.93 72.0407H1332.9Z" fill="#C080FF"/>
<path d="M1341.62 54.5791H1332.9V63.3228C1335.79 63.3975 1338.73 63.2231 1341.62 63.3228C1341.52 60.4331 1341.7 57.4936 1341.62 54.604V54.5791Z" fill="#C080FF"/>
<path d="M1350.34 63.3193C1347.45 63.394 1344.51 63.4189 1341.62 63.3193C1341.72 66.209 1341.72 69.1484 1341.62 72.0381C1344.51 71.9384 1347.45 71.9633 1350.34 72.0381C1350.24 69.1484 1350.24 66.209 1350.34 63.3193Z" fill="#C080FF"/>
<path d="M1350.34 80.7592H1360.31V72.0154C1356.99 71.9656 1353.66 72.1151 1350.34 72.0154C1350.44 74.9051 1350.27 77.8445 1350.34 80.7341V80.7592Z" fill="#C080FF"/>
<path d="M1360.31 63.3208V54.5771H1350.32C1350.24 57.4667 1350.42 60.4062 1350.32 63.2958C1353.63 63.2211 1356.97 63.3706 1360.28 63.2958L1360.31 63.3208Z" fill="#C080FF"/>
<path d="M1350.34 89.4502V98.1939H1360.31V89.4502H1350.34Z" fill="#C080FF"/>
<path d="M1350.34 108.135V116.879H1360.31V108.135H1350.34Z" fill="#C080FF"/>
<path d="M1350.34 125.573V134.317H1360.31V125.573H1350.34Z" fill="#C080FF"/>
<path d="M1350.34 143.008V151.752H1360.31V143.008H1350.34Z" fill="#C080FF"/>
<path d="M1350.34 179.131V187.875H1360.31V179.131H1350.34Z" fill="#C080FF"/>
<path d="M1350.34 196.57V205.314H1360.31V196.57H1350.34Z" fill="#C080FF"/>
<path d="M1350.34 214.004V222.748H1360.31V214.004H1350.34Z" fill="#C080FF"/>
<path d="M1350.34 250.128V258.871H1360.31V250.128H1350.34Z" fill="#C080FF"/>
<path d="M1350.34 285.001V293.744H1360.31V285.001H1350.34Z" fill="#C080FF"/>
<path d="M1350.34 321.124V329.868H1360.31V321.124H1350.34Z" fill="#C080FF"/>
<path d="M1350.34 355.997V364.741H1360.31V355.997H1350.34Z" fill="#C080FF"/>
<path d="M1332.9 160.472V170.436H1341.65V160.472H1332.9Z" fill="#C080FF"/>
<path d="M1332.9 231.468V241.432H1341.65V231.468H1332.9Z" fill="#C080FF"/>
<path d="M1315.46 160.472V170.436H1324.21V160.472H1315.46Z" fill="#C080FF"/>
<path d="M1298.02 160.472V170.436H1306.77V160.472H1298.02Z" fill="#C080FF"/>
<path d="M1298.02 231.468V241.432H1306.77V231.468H1298.02Z" fill="#C080FF"/>
<path d="M1279.34 160.472V170.436H1288.08V160.472H1279.34Z" fill="#C080FF"/>
<path d="M1279.34 427.02V436.984H1288.08V427.02H1279.34Z" fill="#C080FF"/>
<path d="M1261.9 160.472V170.436H1270.64V160.472H1261.9Z" fill="#C080FF"/>
<path d="M1261.9 231.468V241.432H1270.64V231.468H1261.9Z" fill="#C080FF"/>
<path d="M1244.46 160.472V170.436H1253.2V160.472H1244.46Z" fill="#C080FF"/>
<path d="M1235.74 18.4561H1225.77V27.1998C1229.09 27.2496 1232.42 27.1001 1235.74 27.1998C1235.64 24.3101 1235.81 21.3706 1235.74 18.481V18.4561Z" fill="#C080FF"/>
<path d="M1253.18 27.2017V18.458H1244.43C1244.36 21.3477 1244.53 24.2872 1244.43 27.1768C1247.32 27.0772 1250.26 27.2515 1253.15 27.1768L1253.18 27.2017Z" fill="#C080FF"/>
<path d="M1244.46 37.1645C1244.36 33.8763 1244.36 30.4884 1244.46 27.2002C1241.57 27.2999 1238.63 27.275 1235.74 27.2002C1235.84 30.4884 1235.84 33.8763 1235.74 37.1645C1238.63 37.0898 1241.57 37.0649 1244.46 37.1645Z" fill="#C080FF"/>
<path d="M1244.46 45.882H1253.18V37.1383C1250.29 37.0636 1247.35 37.238 1244.46 37.1383C1244.56 40.028 1244.38 42.9674 1244.46 45.8571V45.882Z" fill="#C080FF"/>
<path d="M1235.74 37.1632C1232.42 37.238 1229.09 37.0885 1225.77 37.1632V45.882H1235.76C1235.84 42.9924 1235.66 40.0529 1235.76 37.1632H1235.74Z" fill="#C080FF"/>
<path d="M1225.77 54.5771V63.3208H1235.74V54.5771H1225.77Z" fill="#C080FF"/>
<path d="M1225.77 72.0156V80.7594H1235.74V72.0156H1225.77Z" fill="#C080FF"/>
<path d="M1225.77 89.4502V98.1939H1235.74V89.4502H1225.77Z" fill="#C080FF"/>
<path d="M1225.77 125.573V134.317H1235.74V125.573H1225.77Z" fill="#C080FF"/>
<path d="M1225.77 196.57V205.314H1235.74V196.57H1225.77Z" fill="#C080FF"/>
<path d="M1208.33 160.472V170.436H1217.08V160.472H1208.33Z" fill="#C080FF"/>
<path d="M1190.89 37.1637V45.8825H1199.64C1199.71 42.9929 1199.54 40.0534 1199.64 37.1637C1196.75 37.2634 1193.81 37.089 1190.92 37.1637H1190.89Z" fill="#C080FF"/>
<path d="M1208.33 45.882H1217.05V37.1383C1214.16 37.0636 1211.22 37.238 1208.33 37.1383C1208.43 40.028 1208.26 42.9674 1208.33 45.8571V45.882Z" fill="#C080FF"/>
<path d="M1217.05 27.2017V18.458H1208.31C1208.23 21.3477 1208.41 24.2872 1208.31 27.1768C1211.2 27.0772 1214.14 27.2515 1217.03 27.1768L1217.05 27.2017Z" fill="#C080FF"/>
<path d="M1199.61 37.1645C1202.5 37.0649 1205.44 37.0649 1208.33 37.1645C1208.23 33.8763 1208.23 30.4884 1208.33 27.2002C1205.44 27.2999 1202.5 27.2999 1199.61 27.2002C1199.71 30.4884 1199.71 33.8763 1199.61 37.1645Z" fill="#C080FF"/>
<path d="M1199.61 18.4551H1190.89V27.1988C1193.78 27.2736 1196.72 27.0992 1199.61 27.1988C1199.51 24.3092 1199.69 21.3697 1199.61 18.4801V18.4551Z" fill="#C080FF"/>
<path d="M1190.89 160.472V170.436H1199.64V160.472H1190.89Z" fill="#C080FF"/>
<path d="M1173.45 160.472V170.436H1182.2V160.472H1173.45Z" fill="#C080FF"/>
<path d="M1164.73 37.1632C1161.42 37.238 1158.08 37.0885 1154.77 37.1632V45.882H1164.76C1164.83 42.9924 1164.66 40.0529 1164.76 37.1632H1164.73Z" fill="#C080FF"/>
<path d="M1173.45 37.1645C1173.35 33.8763 1173.35 30.4884 1173.45 27.2002C1170.56 27.2999 1167.62 27.275 1164.73 27.2002C1164.83 30.4884 1164.83 33.8763 1164.73 37.1645C1167.62 37.0898 1170.56 37.0649 1173.45 37.1645Z" fill="#C080FF"/>
<path d="M1164.73 18.4561H1154.77V27.1998C1158.08 27.2496 1161.42 27.1001 1164.73 27.1998C1164.63 24.3101 1164.81 21.3706 1164.73 18.481V18.4561Z" fill="#C080FF"/>
<path d="M1173.45 45.882H1182.17V37.1383C1179.28 37.0636 1176.34 37.238 1173.45 37.1383C1173.55 40.028 1173.38 42.9674 1173.45 45.8571V45.882Z" fill="#C080FF"/>
<path d="M1182.17 27.2017V18.458H1173.43C1173.35 21.3477 1173.53 24.2872 1173.43 27.1768C1176.32 27.0772 1179.26 27.2515 1182.15 27.1768L1182.17 27.2017Z" fill="#C080FF"/>
<path d="M1154.77 54.5771V63.3208H1164.73V54.5771H1154.77Z" fill="#C080FF"/>
<path d="M1154.77 72.0156V80.7594H1164.73V72.0156H1154.77Z" fill="#C080FF"/>
<path d="M1154.77 89.4502V98.1939H1164.73V89.4502H1154.77Z" fill="#C080FF"/>
<path d="M1154.77 125.573V134.317H1164.73V125.573H1154.77Z" fill="#C080FF"/>
<path d="M1154.77 196.57V205.314H1164.73V196.57H1154.77Z" fill="#C080FF"/>
<path d="M1137.33 427.02V436.984H1146.07V427.02H1137.33Z" fill="#C080FF"/>
<path d="M1119.89 160.472V170.436H1128.63V160.472H1119.89Z" fill="#C080FF"/>
<path d="M1083.76 160.472V170.436H1092.51V160.472H1083.76Z" fill="#C080FF"/>
<path d="M1048.88 160.472V170.436H1057.63V160.472H1048.88Z" fill="#C080FF"/>
<path d="M1012.76 160.472V170.436H1021.5V160.472H1012.76Z" fill="#C080FF"/>
<path d="M995.319 427.02V436.984H1004.06V427.02H995.319Z" fill="#C080FF"/>
<path d="M959.189 1.01953V9.76324H969.159V1.01953H959.189Z" fill="#C080FF"/>
<path d="M959.189 18.458V27.2017H969.159V18.458H959.189Z" fill="#C080FF"/>
<path d="M959.189 37.1387V45.8824H969.159V37.1387H959.189Z" fill="#C080FF"/>
<path d="M959.189 54.5771V63.3208H969.159V54.5771H959.189Z" fill="#C080FF"/>
<path d="M959.189 72.0156V80.7594H969.159V72.0156H959.189Z" fill="#C080FF"/>
<path d="M959.189 89.4502V98.1939H969.159V89.4502H959.189Z" fill="#C080FF"/>
<path d="M959.189 108.135V116.879H969.159V108.135H959.189Z" fill="#C080FF"/>
<path d="M959.189 143.008V151.752H969.159V143.008H959.189Z" fill="#C080FF"/>
<path d="M959.189 179.131V187.875H969.159V179.131H959.189Z" fill="#C080FF"/>
<path d="M959.189 214.004V222.748H969.159V214.004H959.189Z" fill="#C080FF"/>
<path d="M959.189 250.128V258.871H969.159V250.128H959.189Z" fill="#C080FF"/>
<path d="M941.749 160.472V170.436H950.499V160.472H941.749Z" fill="#C080FF"/>
<path d="M888.189 1.01953V9.76324H898.159V1.01953H888.189Z" fill="#C080FF"/>
<path d="M888.189 18.458V27.2017H898.159V18.458H888.189Z" fill="#C080FF"/>
<path d="M888.189 37.1387V45.8824H898.159V37.1387H888.189Z" fill="#C080FF"/>
<path d="M888.189 72.0156V80.7594H898.159V72.0156H888.189Z" fill="#C080FF"/>
<path d="M888.189 108.135V116.879H898.159V108.135H888.189Z" fill="#C080FF"/>
<path d="M888.189 143.008V151.752H898.159V143.008H888.189Z" fill="#C080FF"/>
<path d="M888.189 179.131V187.875H898.159V179.131H888.189Z" fill="#C080FF"/>
<path d="M888.189 250.128V258.871H898.159V250.128H888.189Z" fill="#C080FF"/>
<path d="M763.619 18.458V27.2017H773.579V18.458H763.619Z" fill="#C080FF"/>
<path d="M763.619 54.5771V63.3208H773.579V54.5771H763.619Z" fill="#C080FF"/>
<path d="M763.619 125.573V134.317H773.579V125.573H763.619Z" fill="#C080FF"/>
<path d="M426.029 143.008V151.752H435.999V143.008H426.029Z" fill="#C080FF"/>
<path d="M426.029 72.0156V80.7594H435.999V72.0156H426.029Z" fill="#C080FF"/>
<path d="M426.029 37.1387V45.8824H435.999V37.1387H426.029Z" fill="#C080FF"/>
<path d="M426.029 1.01953V9.76324H435.999V1.01953H426.029Z" fill="#C080FF"/>
<path d="M692.609 18.458V27.2017H702.579V18.458H692.609Z" fill="#C080FF"/>
<path d="M692.609 54.5771V63.3208H702.579V54.5771H692.609Z" fill="#C080FF"/>
<path d="M692.609 125.573V134.317H702.579V125.573H692.609Z" fill="#C080FF"/>
<path d="M497.039 214.004V222.748H506.999V214.004H497.039Z" fill="#C080FF"/>
<path d="M497.039 143.008V151.752H506.999V143.008H497.039Z" fill="#C080FF"/>
<path d="M497.039 72.0156V80.7594H506.999V72.0156H497.039Z" fill="#C080FF"/>
<path d="M497.039 37.1387V45.8824H506.999V37.1387H497.039Z" fill="#C080FF"/>
<path d="M497.039 1.01953V9.76324H506.999V1.01953H497.039Z" fill="#C080FF"/>
<path d="M515.719 18.458V27.2017H524.439V18.458H515.719Z" fill="#C080FF"/>
<path d="M533.159 108.135V116.879H541.879V108.135H533.159Z" fill="#C080FF"/>
<path d="M533.159 72.0156V80.7594H541.879V72.0156H533.159Z" fill="#C080FF"/>
<path d="M533.159 37.1387V45.8824H541.879V37.1387H533.159Z" fill="#C080FF"/>
<path d="M533.159 1.01953V9.76324H541.879V1.01953H533.159Z" fill="#C080FF"/>
<path d="M550.599 54.5771V63.3208H559.319V54.5771H550.599Z" fill="#C080FF"/>
<path d="M569.289 285.001V293.744H578.009V285.001H569.289Z" fill="#C080FF"/>
<path d="M569.289 214.004V222.748H578.009V214.004H569.289Z" fill="#C080FF"/>
<path d="M569.289 143.008V151.752H578.009V143.008H569.289Z" fill="#C080FF"/>
<path d="M569.289 108.135V116.879H578.009V108.135H569.289Z" fill="#C080FF"/>
<path d="M569.289 72.0156V80.7594H578.009V72.0156H569.289Z" fill="#C080FF"/>
<path d="M569.289 37.1387V45.8824H578.009V37.1387H569.289Z" fill="#C080FF"/>
<path d="M569.289 1.01953V9.76324H578.009V1.01953H569.289Z" fill="#C080FF"/>
<path d="M586.729 18.458V27.2017H595.449V18.458H586.729Z" fill="#C080FF"/>
<path d="M604.169 179.131V187.875H612.889V179.131H604.169Z" fill="#C080FF"/>
<path d="M604.169 108.135V116.879H612.889V108.135H604.169Z" fill="#C080FF"/>
<path d="M604.169 72.0156V80.7594H612.889V72.0156H604.169Z" fill="#C080FF"/>
<path d="M604.169 37.1387V45.8824H612.889V37.1387H604.169Z" fill="#C080FF"/>
<path d="M604.169 1.01953V9.76324H612.889V1.01953H604.169Z" fill="#C080FF"/>
<path d="M621.609 54.5771V63.3208H630.329V54.5771H621.609Z" fill="#C080FF"/>
<path d="M621.609 18.458V27.2017H630.329V18.458H621.609Z" fill="#C080FF"/>
<path d="M462.149 1.01953V9.76324H470.869V1.01953H462.149Z" fill="#C080FF"/>
<path d="M462.149 37.1387V45.8824H470.869V37.1387H462.149Z" fill="#C080FF"/>
<path d="M462.149 108.135V116.879H470.869V108.135H462.149Z" fill="#C080FF"/>
<path d="M640.289 214.004V222.748H649.009V214.004H640.289Z" fill="#C080FF"/>
<path d="M640.289 179.131V187.875H649.009V179.131H640.289Z" fill="#C080FF"/>
<path d="M640.289 143.008V151.752H649.009V143.008H640.289Z" fill="#C080FF"/>
<path d="M640.289 108.135V116.879H649.009V108.135H640.289Z" fill="#C080FF"/>
<path d="M640.289 72.0156V80.7594H649.009V72.0156H640.289Z" fill="#C080FF"/>
<path d="M640.289 37.1387V45.8824H649.009V37.1387H640.289Z" fill="#C080FF"/>
<path d="M640.289 1.01953V9.76324H649.009V1.01953H640.289Z" fill="#C080FF"/>
<path d="M657.729 54.5771V63.3208H666.449V54.5771H657.729Z" fill="#C080FF"/>
<path d="M657.729 18.458V27.2017H666.449V18.458H657.729Z" fill="#C080FF"/>
<path d="M675.169 179.131V187.875H683.889V179.131H675.169Z" fill="#C080FF"/>
<path d="M675.169 108.135V116.879H683.889V108.135H675.169Z" fill="#C080FF"/>
<path d="M675.169 72.0156V80.7594H683.889V72.0156H675.169Z" fill="#C080FF"/>
<path d="M675.169 37.1387V45.8824H683.889V37.1387H675.169Z" fill="#C080FF"/>
<path d="M675.169 1.01953V9.76324H683.889V1.01953H675.169Z" fill="#C080FF"/>
<path d="M711.299 285.001V293.744H720.019V285.001H711.299Z" fill="#C080FF"/>
<path d="M711.299 214.004V222.748H720.019V214.004H711.299Z" fill="#C080FF"/>
<path d="M711.299 179.131V187.875H720.019V179.131H711.299Z" fill="#C080FF"/>
<path d="M711.299 143.008V151.752H720.019V143.008H711.299Z" fill="#C080FF"/>
<path d="M711.299 108.135V116.879H720.019V108.135H711.299Z" fill="#C080FF"/>
<path d="M711.299 72.0156V80.7594H720.019V72.0156H711.299Z" fill="#C080FF"/>
<path d="M711.299 37.1387V45.8824H720.019V37.1387H711.299Z" fill="#C080FF"/>
<path d="M711.299 1.01953V9.76324H720.019V1.01953H711.299Z" fill="#C080FF"/>
<path d="M728.739 89.4502V98.1939H737.459V89.4502H728.739Z" fill="#C080FF"/>
<path d="M728.739 54.5771V63.3208H737.459V54.5771H728.739Z" fill="#C080FF"/>
<path d="M728.739 18.458V27.2017H737.459V18.458H728.739Z" fill="#C080FF"/>
<path d="M746.179 179.131V187.875H754.899V179.131H746.179Z" fill="#C080FF"/>
<path d="M746.179 143.008V151.752H754.899V143.008H746.179Z" fill="#C080FF"/>
<path d="M746.179 108.135V116.879H754.899V108.135H746.179Z" fill="#C080FF"/>
<path d="M746.179 72.0156V80.7594H754.899V72.0156H746.179Z" fill="#C080FF"/>
<path d="M746.179 37.1387V45.8824H754.899V37.1387H746.179Z" fill="#C080FF"/>
<path d="M746.179 18.458V27.2017H754.899V18.458H746.179Z" fill="#C080FF"/>
<path d="M746.179 1.01953V9.76324H754.899V1.01953H746.179Z" fill="#C080FF"/>
<path d="M391.149 1.01953V9.76324H399.869V1.01953H391.149Z" fill="#C080FF"/>
<path d="M391.149 37.1387V45.8824H399.869V37.1387H391.149Z" fill="#C080FF"/>
<path d="M391.149 108.135V116.879H399.869V108.135H391.149Z" fill="#C080FF"/>
<path d="M782.299 285.001V293.744H791.019V285.001H782.299Z" fill="#C080FF"/>
<path d="M782.299 214.004V222.748H791.019V214.004H782.299Z" fill="#C080FF"/>
<path d="M782.299 179.131V187.875H791.019V179.131H782.299Z" fill="#C080FF"/>
<path d="M782.299 143.008V151.752H791.019V143.008H782.299Z" fill="#C080FF"/>
<path d="M782.299 108.135V116.879H791.019V108.135H782.299Z" fill="#C080FF"/>
<path d="M782.299 72.0156V80.7594H791.019V72.0156H782.299Z" fill="#C080FF"/>
<path d="M782.299 54.5771V63.3208H791.019V54.5771H782.299Z" fill="#C080FF"/>
<path d="M782.299 37.1387V45.8824H791.019V37.1387H782.299Z" fill="#C080FF"/>
<path d="M782.299 18.458V27.2017H791.019V18.458H782.299Z" fill="#C080FF"/>
<path d="M782.299 1.01953V9.76324H791.019V1.01953H782.299Z" fill="#C080FF"/>
<path d="M799.739 89.4502V98.1939H808.459V89.4502H799.739Z" fill="#C080FF"/>
<path d="M799.739 54.5771V63.3208H808.459V54.5771H799.739Z" fill="#C080FF"/>
<path d="M799.739 18.458V27.2017H808.459V18.458H799.739Z" fill="#C080FF"/>
<path d="M817.179 250.128V258.871H825.899V250.128H817.179Z" fill="#C080FF"/>
<path d="M817.179 179.131V187.875H825.899V179.131H817.179Z" fill="#C080FF"/>
<path d="M817.179 143.008V151.752H825.899V143.008H817.179Z" fill="#C080FF"/>
<path d="M817.179 108.135V116.879H825.899V108.135H817.179Z" fill="#C080FF"/>
<path d="M817.179 72.0156V80.7594H825.899V72.0156H817.179Z" fill="#C080FF"/>
<path d="M817.179 37.1387V45.8824H825.899V37.1387H817.179Z" fill="#C080FF"/>
<path d="M817.179 18.458V27.2017H825.899V18.458H817.179Z" fill="#C080FF"/>
<path d="M817.179 1.01953V9.76324H825.899V1.01953H817.179Z" fill="#C080FF"/>
<path d="M355.029 1.01953V9.76324H363.749V1.01953H355.029Z" fill="#C080FF"/>
<path d="M355.029 37.1387V45.8824H363.749V37.1387H355.029Z" fill="#C080FF"/>
<path d="M355.029 72.0156V80.7594H363.749V72.0156H355.029Z" fill="#C080FF"/>
<path d="M355.029 143.008V151.752H363.749V143.008H355.029Z" fill="#C080FF"/>
<path d="M355.029 214.004V222.748H363.749V214.004H355.029Z" fill="#C080FF"/>
<path d="M835.869 125.573V134.317H844.589V125.573H835.869Z" fill="#C080FF"/>
<path d="M835.869 89.4502V98.1939H844.589V89.4502H835.869Z" fill="#C080FF"/>
<path d="M835.869 54.5771V63.3208H844.589V54.5771H835.869Z" fill="#C080FF"/>
<path d="M835.869 18.458V27.2017H844.589V18.458H835.869Z" fill="#C080FF"/>
<path d="M853.309 285.001V293.744H862.029V285.001H853.309Z" fill="#C080FF"/>
<path d="M853.309 214.004V222.748H862.029V214.004H853.309Z" fill="#C080FF"/>
<path d="M853.309 179.131V187.875H862.029V179.131H853.309Z" fill="#C080FF"/>
<path d="M853.309 143.008V151.752H862.029V143.008H853.309Z" fill="#C080FF"/>
<path d="M853.309 108.135V116.879H862.029V108.135H853.309Z" fill="#C080FF"/>
<path d="M853.309 72.0156V80.7594H862.029V72.0156H853.309Z" fill="#C080FF"/>
<path d="M853.309 54.5771V63.3208H862.029V54.5771H853.309Z" fill="#C080FF"/>
<path d="M853.309 37.1387V45.8824H862.029V37.1387H853.309Z" fill="#C080FF"/>
<path d="M853.309 18.458V27.2017H862.029V18.458H853.309Z" fill="#C080FF"/>
<path d="M853.309 1.01953V9.76324H862.029V1.01953H853.309Z" fill="#C080FF"/>
<path d="M870.749 125.573V134.317H879.469V125.573H870.749Z" fill="#C080FF"/>
<path d="M870.749 89.4502V98.1939H879.469V89.4502H870.749Z" fill="#C080FF"/>
<path d="M870.749 54.5771V63.3208H879.469V54.5771H870.749Z" fill="#C080FF"/>
<path d="M870.749 18.458V27.2017H879.469V18.458H870.749Z" fill="#C080FF"/>
<path d="M870.749 1.01953V9.76324H879.469V1.01953H870.749Z" fill="#C080FF"/>
<path d="M906.869 196.57V205.314H915.589V196.57H906.869Z" fill="#C080FF"/>
<path d="M906.869 125.573V134.317H915.589V125.573H906.869Z" fill="#C080FF"/>
<path d="M906.869 89.4502V98.1939H915.589V89.4502H906.869Z" fill="#C080FF"/>
<path d="M906.869 54.5771V63.3208H915.589V54.5771H906.869Z" fill="#C080FF"/>
<path d="M906.869 37.1387V45.8824H915.589V37.1387H906.869Z" fill="#C080FF"/>
<path d="M906.869 18.458V27.2017H915.589V18.458H906.869Z" fill="#C080FF"/>
<path d="M320.149 1.01953V9.76324H328.869V1.01953H320.149Z" fill="#C080FF"/>
<path d="M320.149 37.1387V45.8824H328.869V37.1387H320.149Z" fill="#C080FF"/>
<path d="M924.309 355.997V364.741H933.029V355.997H924.309Z" fill="#C080FF"/>
<path d="M924.309 285.001V293.744H933.029V285.001H924.309Z" fill="#C080FF"/>
<path d="M924.309 214.004V222.748H933.029V214.004H924.309Z" fill="#C080FF"/>
<path d="M924.309 179.131V187.875H933.029V179.131H924.309Z" fill="#C080FF"/>
<path d="M924.309 143.008V151.752H933.029V143.008H924.309Z" fill="#C080FF"/>
<path d="M924.309 108.135V116.879H933.029V108.135H924.309Z" fill="#C080FF"/>
<path d="M924.309 72.0156V80.7594H933.029V72.0156H924.309Z" fill="#C080FF"/>
<path d="M924.309 54.5771V63.3208H933.029V54.5771H924.309Z" fill="#C080FF"/>
<path d="M924.309 37.1387V45.8824H933.029V37.1387H924.309Z" fill="#C080FF"/>
<path d="M924.309 18.458V27.2017H933.029V18.458H924.309Z" fill="#C080FF"/>
<path d="M924.309 1.01953V9.76324H933.029V1.01953H924.309Z" fill="#C080FF"/>
<path d="M941.749 125.573V134.317H950.469V125.573H941.749Z" fill="#C080FF"/>
<path d="M941.749 89.4502V98.1939H950.469V89.4502H941.749Z" fill="#C080FF"/>
<path d="M941.749 54.5771V63.3208H950.469V54.5771H941.749Z" fill="#C080FF"/>
<path d="M941.749 18.458V27.2017H950.469V18.458H941.749Z" fill="#C080FF"/>
<path d="M941.749 1.01953V9.76324H950.469V1.01953H941.749Z" fill="#C080FF"/>
<path d="M284.019 1.01953V9.76324H292.739V1.01953H284.019Z" fill="#C080FF"/>
<path d="M284.019 72.0156V80.7594H292.739V72.0156H284.019Z" fill="#C080FF"/>
<path d="M284.019 143.008V151.752H292.739V143.008H284.019Z" fill="#C080FF"/>
<path d="M977.879 196.57V205.314H986.599V196.57H977.879Z" fill="#C080FF"/>
<path d="M977.879 125.573V134.317H986.599V125.573H977.879Z" fill="#C080FF"/>
<path d="M977.879 89.4502V98.1939H986.599V89.4502H977.879Z" fill="#C080FF"/>
<path d="M977.879 54.5771V63.3208H986.599V54.5771H977.879Z" fill="#C080FF"/>
<path d="M977.879 37.1387V45.8824H986.599V37.1387H977.879Z" fill="#C080FF"/>
<path d="M977.879 18.458V27.2017H986.599V18.458H977.879Z" fill="#C080FF"/>
<path d="M977.879 1.0446V9.76338H986.619C986.699 6.87373 986.519 3.93425 986.619 1.0446C983.729 1.14425 980.789 0.969872 977.899 1.0446H977.879Z" fill="#C080FF"/>
<path d="M995.319 9.76292H1004.04V1.01921C1001.15 0.944482 998.209 1.11885 995.319 1.01921C995.419 3.90886 995.239 6.84833 995.319 9.73798V9.76292Z" fill="#C080FF"/>
<path d="M995.319 355.997V364.741H1004.04V355.997H995.319Z" fill="#C080FF"/>
<path d="M995.319 285.001V293.744H1004.04V285.001H995.319Z" fill="#C080FF"/>
<path d="M995.319 250.128V258.871H1004.04V250.128H995.319Z" fill="#C080FF"/>
<path d="M995.319 214.004V222.748H1004.04V214.004H995.319Z" fill="#C080FF"/>
<path d="M995.319 179.131V187.875H1004.04V179.131H995.319Z" fill="#C080FF"/>
<path d="M995.319 143.008V151.752H1004.04V143.008H995.319Z" fill="#C080FF"/>
<path d="M995.319 125.573V134.317H1004.04V125.573H995.319Z" fill="#C080FF"/>
<path d="M995.319 108.135V116.879H1004.04V108.135H995.319Z" fill="#C080FF"/>
<path d="M995.319 89.4502V98.1939H1004.04V89.4502H995.319Z" fill="#C080FF"/>
<path d="M995.319 72.0156V80.7594H1004.04V72.0156H995.319Z" fill="#C080FF"/>
<path d="M995.319 54.5771V63.3208H1004.04V54.5771H995.319Z" fill="#C080FF"/>
<path d="M995.319 37.1387V45.8824H1004.04V37.1387H995.319Z" fill="#C080FF"/>
<path d="M995.319 18.458V27.2017H1004.04V18.458H995.319Z" fill="#C080FF"/>
<path d="M1012.76 125.573V134.317H1021.48V125.573H1012.76Z" fill="#C080FF"/>
<path d="M1012.76 89.4502V98.1939H1021.48V89.4502H1012.76Z" fill="#C080FF"/>
<path d="M1012.76 54.5771V63.3208H1021.48V54.5771H1012.76Z" fill="#C080FF"/>
<path d="M1012.76 18.458V27.2017H1021.48V18.458H1012.76Z" fill="#C080FF"/>
<path d="M1012.76 1.01953V9.76324H1021.48V1.01953H1012.76Z" fill="#C080FF"/>
<path d="M1031.44 321.124V329.868H1040.16V321.124H1031.44Z" fill="#C080FF"/>
<path d="M1031.44 250.128V258.871H1040.16V250.128H1031.44Z" fill="#C080FF"/>
<path d="M1031.44 214.004V222.748H1040.16V214.004H1031.44Z" fill="#C080FF"/>
<path d="M1031.44 179.131V187.875H1040.16V179.131H1031.44Z" fill="#C080FF"/>
<path d="M1031.44 143.008V151.752H1040.16V143.008H1031.44Z" fill="#C080FF"/>
<path d="M1031.44 108.135V116.879H1040.16V108.135H1031.44Z" fill="#C080FF"/>
<path d="M1031.44 89.4502V98.1939H1040.16V89.4502H1031.44Z" fill="#C080FF"/>
<path d="M1031.44 72.0156V80.7594H1040.16V72.0156H1031.44Z" fill="#C080FF"/>
<path d="M1031.44 54.5771V63.3208H1040.16V54.5771H1031.44Z" fill="#C080FF"/>
<path d="M1031.44 37.1387V45.8824H1040.16V37.1387H1031.44Z" fill="#C080FF"/>
<path d="M1031.44 18.458V27.2017H1040.16V18.458H1031.44Z" fill="#C080FF"/>
<path d="M1031.44 1.01953V9.76324H1040.16V1.01953H1031.44Z" fill="#C080FF"/>
<path d="M1048.88 196.57V205.314H1057.6V196.57H1048.88Z" fill="#C080FF"/>
<path d="M1048.88 125.573V134.317H1057.6V125.573H1048.88Z" fill="#C080FF"/>
<path d="M1048.88 89.4502V98.1939H1057.6V89.4502H1048.88Z" fill="#C080FF"/>
<path d="M1048.88 54.5771V63.3208H1057.6V54.5771H1048.88Z" fill="#C080FF"/>
<path d="M1048.88 37.1387V45.8824H1057.6V37.1387H1048.88Z" fill="#C080FF"/>
<path d="M1048.88 18.458V27.2017H1057.6V18.458H1048.88Z" fill="#C080FF"/>
<path d="M1048.88 1.0446V9.76338H1057.63C1057.7 6.87373 1057.53 3.93425 1057.63 1.0446C1054.74 1.14425 1051.8 0.969872 1048.91 1.0446H1048.88Z" fill="#C080FF"/>
<path d="M1066.32 9.76292H1075.04V1.01921C1072.15 0.944482 1069.21 1.11885 1066.32 1.01921C1066.42 3.90886 1066.25 6.84833 1066.32 9.73798V9.76292Z" fill="#C080FF"/>
<path d="M1066.32 355.997V364.741H1075.04V355.997H1066.32Z" fill="#C080FF"/>
<path d="M1066.32 285.001V293.744H1075.04V285.001H1066.32Z" fill="#C080FF"/>
<path d="M1066.32 250.128V258.871H1075.04V250.128H1066.32Z" fill="#C080FF"/>
<path d="M1066.32 214.004V222.748H1075.04V214.004H1066.32Z" fill="#C080FF"/>
<path d="M1066.32 179.131V187.875H1075.04V179.131H1066.32Z" fill="#C080FF"/>
<path d="M1066.32 143.008V151.752H1075.04V143.008H1066.32Z" fill="#C080FF"/>
<path d="M1066.32 125.573V134.317H1075.04V125.573H1066.32Z" fill="#C080FF"/>
<path d="M1066.32 108.135V116.879H1075.04V108.135H1066.32Z" fill="#C080FF"/>
<path d="M1066.32 89.4502V98.1939H1075.04V89.4502H1066.32Z" fill="#C080FF"/>
<path d="M1066.32 72.0156V80.7594H1075.04V72.0156H1066.32Z" fill="#C080FF"/>
<path d="M1066.32 54.5771V63.3208H1075.04V54.5771H1066.32Z" fill="#C080FF"/>
<path d="M1066.32 37.1387V45.8824H1075.04V37.1387H1066.32Z" fill="#C080FF"/>
<path d="M1066.32 18.458V27.2017H1075.04V18.458H1066.32Z" fill="#C080FF"/>
<path d="M249.139 37.1387V45.8824H257.859V37.1387H249.139Z" fill="#C080FF"/>
<path d="M1083.76 196.57V205.314H1092.48V196.57H1083.76Z" fill="#C080FF"/>
<path d="M1083.76 125.573V134.317H1092.48V125.573H1083.76Z" fill="#C080FF"/>
<path d="M1083.76 89.4502V98.1939H1092.48V89.4502H1083.76Z" fill="#C080FF"/>
<path d="M1083.76 72.0156V80.7594H1092.48V72.0156H1083.76Z" fill="#C080FF"/>
<path d="M1083.76 54.5771V63.3208H1092.48V54.5771H1083.76Z" fill="#C080FF"/>
<path d="M1083.76 37.1387V45.8824H1092.48V37.1387H1083.76Z" fill="#C080FF"/>
<path d="M1083.76 18.458V27.2017H1092.48V18.458H1083.76Z" fill="#C080FF"/>
<path d="M1083.76 1.01953V9.76324H1092.48V1.01953H1083.76Z" fill="#C080FF"/>
<path d="M1102.45 321.124V329.868H1111.17V321.124H1102.45Z" fill="#C080FF"/>
<path d="M1102.45 250.128V258.871H1111.17V250.128H1102.45Z" fill="#C080FF"/>
<path d="M1102.45 214.004V222.748H1111.17V214.004H1102.45Z" fill="#C080FF"/>
<path d="M1102.45 179.131V187.875H1111.17V179.131H1102.45Z" fill="#C080FF"/>
<path d="M1102.45 143.008V151.752H1111.17V143.008H1102.45Z" fill="#C080FF"/>
<path d="M1102.45 108.135V116.879H1111.17V108.135H1102.45Z" fill="#C080FF"/>
<path d="M1102.45 89.4502V98.1939H1111.17V89.4502H1102.45Z" fill="#C080FF"/>
<path d="M1102.45 72.0156V80.7594H1111.17V72.0156H1102.45Z" fill="#C080FF"/>
<path d="M1102.45 54.5771V63.3208H1111.17V54.5771H1102.45Z" fill="#C080FF"/>
<path d="M1102.45 37.1387V45.8824H1111.17V37.1387H1102.45Z" fill="#C080FF"/>
<path d="M1102.45 18.458V27.2017H1111.17V18.458H1102.45Z" fill="#C080FF"/>
<path d="M1102.45 1.01953V9.76324H1111.17V1.01953H1102.45Z" fill="#C080FF"/>
<path d="M1119.89 196.57V205.314H1128.61V196.57H1119.89Z" fill="#C080FF"/>
<path d="M1119.89 125.573V134.317H1128.61V125.573H1119.89Z" fill="#C080FF"/>
<path d="M1119.89 89.4502V98.1939H1128.61V89.4502H1119.89Z" fill="#C080FF"/>
<path d="M1119.89 54.5771V63.3208H1128.61V54.5771H1119.89Z" fill="#C080FF"/>
<path d="M1119.89 37.1387V45.8824H1128.61V37.1387H1119.89Z" fill="#C080FF"/>
<path d="M1119.89 18.458V27.2017H1128.61V18.458H1119.89Z" fill="#C080FF"/>
<path d="M213.009 1.01953V9.76324H221.729V1.01953H213.009Z" fill="#C080FF"/>
<path d="M213.009 72.0156V80.7594H221.729V72.0156H213.009Z" fill="#C080FF"/>
<path d="M1137.33 355.997V364.741H1146.05V355.997H1137.33Z" fill="#C080FF"/>
<path d="M1137.33 285.001V293.744H1146.05V285.001H1137.33Z" fill="#C080FF"/>
<path d="M1137.33 250.128V258.871H1146.05V250.128H1137.33Z" fill="#C080FF"/>
<path d="M1137.33 214.004V222.748H1146.05V214.004H1137.33Z" fill="#C080FF"/>
<path d="M1137.33 179.131V187.875H1146.05V179.131H1137.33Z" fill="#C080FF"/>
<path d="M1137.33 143.008V151.752H1146.05V143.008H1137.33Z" fill="#C080FF"/>
<path d="M1137.33 125.573V134.317H1146.05V125.573H1137.33Z" fill="#C080FF"/>
<path d="M1137.33 108.135V116.879H1146.05V108.135H1137.33Z" fill="#C080FF"/>
<path d="M1137.33 89.4502V98.1939H1146.05V89.4502H1137.33Z" fill="#C080FF"/>
<path d="M1137.33 72.0156V80.7594H1146.05V72.0156H1137.33Z" fill="#C080FF"/>
<path d="M1137.33 54.5771V63.3208H1146.05V54.5771H1137.33Z" fill="#C080FF"/>
<path d="M1137.33 37.1387V45.8824H1146.05V37.1387H1137.33Z" fill="#C080FF"/>
<path d="M1137.33 18.458V27.2017H1146.05V18.458H1137.33Z" fill="#C080FF"/>
<path d="M1173.45 321.124V329.868H1182.17V321.124H1173.45Z" fill="#C080FF"/>
<path d="M1173.45 285.001V293.744H1182.17V285.001H1173.45Z" fill="#C080FF"/>
<path d="M1173.45 250.128V258.871H1182.17V250.128H1173.45Z" fill="#C080FF"/>
<path d="M1173.45 214.004V222.748H1182.17V214.004H1173.45Z" fill="#C080FF"/>
<path d="M1173.45 179.131V187.875H1182.17V179.131H1173.45Z" fill="#C080FF"/>
<path d="M1173.45 143.008V151.752H1182.17V143.008H1173.45Z" fill="#C080FF"/>
<path d="M1173.45 125.573V134.317H1182.17V125.573H1173.45Z" fill="#C080FF"/>
<path d="M1173.45 108.135V116.879H1182.17V108.135H1173.45Z" fill="#C080FF"/>
<path d="M1173.45 89.4502V98.1939H1182.17V89.4502H1173.45Z" fill="#C080FF"/>
<path d="M1173.45 72.0156V80.7594H1182.17V72.0156H1173.45Z" fill="#C080FF"/>
<path d="M1173.45 54.5771V63.3208H1182.17V54.5771H1173.45Z" fill="#C080FF"/>
<path d="M1190.89 267.562V276.306H1199.61V267.562H1190.89Z" fill="#C080FF"/>
<path d="M1190.89 196.57V205.314H1199.61V196.57H1190.89Z" fill="#C080FF"/>
<path d="M1190.89 125.573V134.317H1199.61V125.573H1190.89Z" fill="#C080FF"/>
<path d="M1190.89 108.135V116.879H1199.61V108.135H1190.89Z" fill="#C080FF"/>
<path d="M1190.89 89.4502V98.1939H1199.61V89.4502H1190.89Z" fill="#C080FF"/>
<path d="M1199.61 54.5791H1190.89V63.3228C1193.78 63.3975 1196.72 63.2231 1199.61 63.3228C1199.51 60.4331 1199.69 57.4936 1199.61 54.604V54.5791Z" fill="#C080FF"/>
<path d="M1217.05 63.3208V54.5771H1208.31C1208.23 57.4667 1208.41 60.4062 1208.31 63.2958C1211.2 63.1962 1214.14 63.3706 1217.03 63.2958L1217.05 63.3208Z" fill="#C080FF"/>
<path d="M1208.33 80.7591H1217.05V72.0153C1214.16 71.9406 1211.22 72.115 1208.33 72.0153C1208.43 74.905 1208.26 77.8445 1208.33 80.7341V80.7591Z" fill="#C080FF"/>
<path d="M1190.89 72.0407V80.7595H1199.64C1199.71 77.8698 1199.54 74.9303 1199.64 72.0407C1196.75 72.1403 1193.81 71.966 1190.92 72.0407H1190.89Z" fill="#C080FF"/>
<path d="M1208.33 63.3193C1205.44 63.4189 1202.5 63.4189 1199.61 63.3193C1199.71 66.209 1199.71 69.1484 1199.61 72.0381C1202.5 71.9384 1205.44 71.9384 1208.33 72.0381C1208.23 69.1484 1208.23 66.209 1208.33 63.3193Z" fill="#C080FF"/>
<path d="M1208.33 355.997V364.741H1217.05V355.997H1208.33Z" fill="#C080FF"/>
<path d="M1208.33 321.124V329.868H1217.05V321.124H1208.33Z" fill="#C080FF"/>
<path d="M1208.33 285.001V293.744H1217.05V285.001H1208.33Z" fill="#C080FF"/>
<path d="M1208.33 250.128V258.871H1217.05V250.128H1208.33Z" fill="#C080FF"/>
<path d="M1208.33 214.004V222.748H1217.05V214.004H1208.33Z" fill="#C080FF"/>
<path d="M1208.33 196.57V205.314H1217.05V196.57H1208.33Z" fill="#C080FF"/>
<path d="M1208.33 179.131V187.875H1217.05V179.131H1208.33Z" fill="#C080FF"/>
<path d="M1208.33 143.008V151.752H1217.05V143.008H1208.33Z" fill="#C080FF"/>
<path d="M1208.33 125.573V134.317H1217.05V125.573H1208.33Z" fill="#C080FF"/>
<path d="M1208.33 108.135V116.879H1217.05V108.135H1208.33Z" fill="#C080FF"/>
<path d="M1208.33 89.4502V98.1939H1217.05V89.4502H1208.33Z" fill="#C080FF"/>
<path d="M1244.46 392.116V400.859H1253.18V392.116H1244.46Z" fill="#C080FF"/>
<path d="M1244.46 321.124V329.868H1253.18V321.124H1244.46Z" fill="#C080FF"/>
<path d="M1244.46 285.001V293.744H1253.18V285.001H1244.46Z" fill="#C080FF"/>
<path d="M1244.46 250.128V258.871H1253.18V250.128H1244.46Z" fill="#C080FF"/>
<path d="M1244.46 214.004V222.748H1253.18V214.004H1244.46Z" fill="#C080FF"/>
<path d="M1244.46 179.131V187.875H1253.18V179.131H1244.46Z" fill="#C080FF"/>
<path d="M1244.46 143.008V151.752H1253.18V143.008H1244.46Z" fill="#C080FF"/>
<path d="M1244.46 125.573V134.317H1253.18V125.573H1244.46Z" fill="#C080FF"/>
<path d="M1244.46 108.135V116.879H1253.18V108.135H1244.46Z" fill="#C080FF"/>
<path d="M1244.46 89.4502V98.1939H1253.18V89.4502H1244.46Z" fill="#C080FF"/>
<path d="M1244.46 72.0156V80.7594H1253.18V72.0156H1244.46Z" fill="#C080FF"/>
<path d="M1244.46 54.5771V63.3208H1253.18V54.5771H1244.46Z" fill="#C080FF"/>
<path d="M142.009 1.01953V9.76324H150.729V1.01953H142.009Z" fill="#C080FF"/>
<path d="M1261.9 267.562V276.306H1270.62V267.562H1261.9Z" fill="#C080FF"/>
<path d="M1261.9 196.57V205.314H1270.62V196.57H1261.9Z" fill="#C080FF"/>
<path d="M1261.9 125.573V134.317H1270.62V125.573H1261.9Z" fill="#C080FF"/>
<path d="M1261.9 108.135V116.879H1270.62V108.135H1261.9Z" fill="#C080FF"/>
<path d="M1261.9 89.4502V98.1939H1270.62V89.4502H1261.9Z" fill="#C080FF"/>
<path d="M1279.34 63.3193C1276.45 63.4189 1273.51 63.4189 1270.62 63.3193C1270.72 66.209 1270.72 69.1484 1270.62 72.0381C1273.51 71.9384 1276.45 71.9384 1279.34 72.0381C1279.24 69.1484 1279.24 66.209 1279.34 63.3193Z" fill="#C080FF"/>
<path d="M1279.34 80.7591H1288.06V72.0153C1285.17 71.9406 1282.23 72.115 1279.34 72.0153C1279.44 74.905 1279.26 77.8445 1279.34 80.7341V80.7591Z" fill="#C080FF"/>
<path d="M1288.06 63.3208V54.5771H1279.31C1279.24 57.4667 1279.41 60.4062 1279.31 63.2958C1282.2 63.1962 1285.14 63.3706 1288.03 63.2958L1288.06 63.3208Z" fill="#C080FF"/>
<path d="M1270.62 54.5791H1261.9V63.3228C1264.79 63.3975 1267.73 63.2231 1270.62 63.3228C1270.52 60.4331 1270.69 57.4936 1270.62 54.604V54.5791Z" fill="#C080FF"/>
<path d="M1261.9 72.0407V80.7595H1270.64C1270.72 77.8698 1270.54 74.9303 1270.64 72.0407C1267.75 72.1403 1264.81 71.966 1261.92 72.0407H1261.9Z" fill="#C080FF"/>
<path d="M1279.34 355.997V364.741H1288.06V355.997H1279.34Z" fill="#C080FF"/>
<path d="M1279.34 321.124V329.868H1288.06V321.124H1279.34Z" fill="#C080FF"/>
<path d="M1279.34 285.001V293.744H1288.06V285.001H1279.34Z" fill="#C080FF"/>
<path d="M1279.34 250.128V258.871H1288.06V250.128H1279.34Z" fill="#C080FF"/>
<path d="M1279.34 214.004V222.748H1288.06V214.004H1279.34Z" fill="#C080FF"/>
<path d="M1279.34 196.57V205.314H1288.06V196.57H1279.34Z" fill="#C080FF"/>
<path d="M1279.34 179.131V187.875H1288.06V179.131H1279.34Z" fill="#C080FF"/>
<path d="M1279.34 143.008V151.752H1288.06V143.008H1279.34Z" fill="#C080FF"/>
<path d="M1279.34 125.573V134.317H1288.06V125.573H1279.34Z" fill="#C080FF"/>
<path d="M1279.34 108.135V116.879H1288.06V108.135H1279.34Z" fill="#C080FF"/>
<path d="M1279.34 89.4502V98.1939H1288.06V89.4502H1279.34Z" fill="#C080FF"/>
<path d="M1298.02 267.562V276.306H1306.74V267.562H1298.02Z" fill="#C080FF"/>
<path d="M1298.02 196.57V205.314H1306.74V196.57H1298.02Z" fill="#C080FF"/>
<path d="M1298.02 143.008V151.752H1306.74V143.008H1298.02Z" fill="#C080FF"/>
<path d="M1298.02 125.573V134.317H1306.74V125.573H1298.02Z" fill="#C080FF"/>
<path d="M1298.02 108.135V116.879H1306.74V108.135H1298.02Z" fill="#C080FF"/>
<path d="M1298.02 89.4502V98.1939H1306.74V89.4502H1298.02Z" fill="#C080FF"/>
<path d="M1298.02 72.0156V80.7594H1306.74V72.0156H1298.02Z" fill="#C080FF"/>
<path d="M1298.02 54.5771V63.3208H1306.74V54.5771H1298.02Z" fill="#C080FF"/>
<path d="M1315.46 392.116V400.859H1324.18V392.116H1315.46Z" fill="#C080FF"/>
<path d="M1315.46 321.124V329.868H1324.18V321.124H1315.46Z" fill="#C080FF"/>
<path d="M1315.46 285.001V293.744H1324.18V285.001H1315.46Z" fill="#C080FF"/>
<path d="M1315.46 250.128V258.871H1324.18V250.128H1315.46Z" fill="#C080FF"/>
<path d="M1315.46 214.004V222.748H1324.18V214.004H1315.46Z" fill="#C080FF"/>
<path d="M1315.46 179.131V187.875H1324.18V179.131H1315.46Z" fill="#C080FF"/>
<path d="M1315.46 143.008V151.752H1324.18V143.008H1315.46Z" fill="#C080FF"/>
<path d="M1315.46 125.573V134.317H1324.18V125.573H1315.46Z" fill="#C080FF"/>
<path d="M1315.46 108.135V116.879H1324.18V108.135H1315.46Z" fill="#C080FF"/>
<path d="M1315.46 89.4502V98.1939H1324.18V89.4502H1315.46Z" fill="#C080FF"/>
<path d="M1315.46 72.0156V80.7594H1324.18V72.0156H1315.46Z" fill="#C080FF"/>
<path d="M1315.46 54.5771V63.3208H1324.18V54.5771H1315.46Z" fill="#C080FF"/>
<path d="M1332.9 267.562V276.306H1341.62V267.562H1332.9Z" fill="#C080FF"/>
<path d="M1332.9 196.57V205.314H1341.62V196.57H1332.9Z" fill="#C080FF"/>
<path d="M1332.9 125.573V134.317H1341.62V125.573H1332.9Z" fill="#C080FF"/>
<path d="M1332.9 108.135V116.879H1341.62V108.135H1332.9Z" fill="#C080FF"/>
<path d="M1332.9 89.4502V98.1939H1341.62V89.4502H1332.9Z" fill="#C080FF"/>
<path d="M71.0049 1.01953V9.76324H79.7249V1.01953H71.0049Z" fill="#C080FF"/>
<path d="M71.0049 72.0156V80.7594H79.7249V72.0156H71.0049Z" fill="#C080FF"/>
<path d="M1369.03 303.686V312.43H1377.75V303.686H1369.03Z" fill="#C080FF"/>
<path d="M1369.03 267.562V276.306H1377.75V267.562H1369.03Z" fill="#C080FF"/>
<path d="M1369.03 196.57V205.314H1377.75V196.57H1369.03Z" fill="#C080FF"/>
<path d="M1369.03 143.008V151.752H1377.75V143.008H1369.03Z" fill="#C080FF"/>
<path d="M1369.03 125.573V134.317H1377.75V125.573H1369.03Z" fill="#C080FF"/>
<path d="M1386.47 392.116V400.859H1395.19V392.116H1386.47Z" fill="#C080FF"/>
<path d="M1386.47 355.997V364.741H1395.19V355.997H1386.47Z" fill="#C080FF"/>
<path d="M1386.47 321.124V329.868H1395.19V321.124H1386.47Z" fill="#C080FF"/>
<path d="M1386.47 285.001V293.744H1395.19V285.001H1386.47Z" fill="#C080FF"/>
<path d="M1386.47 250.128V258.871H1395.19V250.128H1386.47Z" fill="#C080FF"/>
<path d="M1386.47 214.004V222.748H1395.19V214.004H1386.47Z" fill="#C080FF"/>
<path d="M1386.47 196.57V205.314H1395.19V196.57H1386.47Z" fill="#C080FF"/>
<path d="M1386.47 179.131V187.875H1395.19V179.131H1386.47Z" fill="#C080FF"/>
<path d="M1386.47 143.008V151.752H1395.19V143.008H1386.47Z" fill="#C080FF"/>
<path d="M1386.47 125.573V134.317H1395.19V125.573H1386.47Z" fill="#C080FF"/>
<path d="M1403.91 267.562V276.306H1412.66V267.562H1403.91Z" fill="#C080FF"/>
<path d="M1403.91 196.57V205.314H1412.66V196.57H1403.91Z" fill="#C080FF"/>
<path d="M1403.91 179.131V187.875H1412.66V179.131H1403.91Z" fill="#C080FF"/>
<path d="M1403.91 143.008V151.752H1412.66V143.008H1403.91Z" fill="#C080FF"/>
<path d="M1403.91 125.573V134.317H1412.66V125.573H1403.91Z" fill="#C080FF"/>
<path d="M0 1.01953V9.76324H8.72003V1.01953H0Z" fill="#C080FF"/>
</g>
<defs>
<clipPath id="clip0_414_125114">
<rect width="1421" height="507" fill="white"/>
</clipPath>
</defs>
</svg>
