<svg width="1064" height="214" viewBox="0 0 1064 214" fill="none" xmlns="http://www.w3.org/2000/svg">
<g clip-path="url(#clip0_261_120526)">
<path d="M0 3.08984H45.77C77.35 3.08984 95.98 12.9598 95.98 45.1498V46.2498C95.98 78.5398 77.39 88.3098 45.81 88.3098H35.82V127.53H0V3.08984ZM43.67 60.8098C53.45 60.8098 58.6 57.1798 58.6 46.3298V45.0798C58.6 34.2798 53.45 30.5798 43.67 30.5798H35.83V60.7998H43.67V60.8098Z" fill="#F7F6F3"/>
<path d="M100.93 71.76V58.86C100.93 15.56 117.85 0 153.84 0C189.83 0 206.73 15.56 206.73 58.86V71.76C206.73 115.05 189.81 130.62 153.84 130.62C117.87 130.62 100.93 115.05 100.93 71.76ZM168.87 71.84V58.77C168.87 36.2 165.81 28.65 153.84 28.65C141.87 28.65 138.78 36.2 138.78 58.77V71.84C138.78 94.41 141.9 101.98 153.84 101.98C165.78 101.98 168.87 94.41 168.87 71.84Z" fill="#F7F6F3"/>
<path d="M213.77 3.08984H256.91C289.3 3.08984 309.24 8.34984 309.24 36.5298V37.0098C309.17 53.8598 302.64 62.4799 291.7 67.1498C301.84 71.2098 305.35 76.0298 306.84 92.9998L308.14 108.5C309.29 121.82 309.77 124.57 311.51 127.53H274.87C273.71 124.4 273.11 120.96 272.8 116.89L271.22 97.1898C270.17 85.3598 268.39 82.3898 258.61 82.3898H249.6V127.52H213.78V3.08984H213.77ZM257.54 55.6898C268.7 55.6898 272.72 52.5198 272.72 43.2398V42.6998C272.72 33.4598 268.7 30.5098 257.54 30.5098H249.59V55.6898H257.54Z" fill="#F7F6F3"/>
<path d="M343.52 32.5898H312.2V3.08984H410.63V32.5998H379.35V127.54H343.53V32.5898H343.52Z" fill="#F7F6F3"/>
<path d="M425.88 3.08984H475.1L508.03 127.54H471.03L465.42 102.18H435.52L429.88 127.54H393.03L425.88 3.08984ZM459.58 73.8998L450.55 32.7398H450.32L441.3 73.8998H459.59H459.58Z" fill="#F7F6F3"/>
<path d="M513.45 3.08984H549.27V127.54H513.45V3.08984Z" fill="#F7F6F3"/>
<path d="M560.29 3.08984H602.69L629.04 85.0499H629.41L627.13 44.7498V3.08984H660.24V127.54H617.85L591.54 50.1298H591.17L593.39 90.5198V127.54H560.28V3.08984H560.29Z" fill="#F7F6F3"/>
<path d="M671.24 3.08984H753.91V32.5998H707.06V50.3998H748.46V79.9099H707.06V98.0398H754.52V127.55H671.24V3.08984Z" fill="#F7F6F3"/>
<path d="M763.42 3.08984H806.56C838.95 3.08984 858.89 8.34984 858.89 36.5298V37.0098C858.82 53.8598 852.29 62.4799 841.35 67.1498C851.49 71.2098 855 76.0298 856.49 92.9998L857.79 108.5C858.94 121.82 859.42 124.57 861.16 127.53H824.52C823.36 124.4 822.76 120.96 822.45 116.89L820.87 97.1898C819.82 85.3598 818.04 82.3898 808.26 82.3898H799.25V127.52H763.43V3.08984H763.42ZM807.2 55.6898C818.36 55.6898 822.38 52.5198 822.38 43.2398V42.6998C822.38 33.4598 818.36 30.5098 807.2 30.5098H799.25V55.6898H807.2Z" fill="#F7F6F3"/>
<path d="M870.36 93.27H904.71V127.53H870.36V93.27Z" fill="#F7F6F3"/>
<path d="M914.92 3.08984H949.85V28.7598H914.92V3.08984ZM914.92 35.5798H949.85V127.54H914.92V35.5798Z" fill="#F7F6F3"/>
<path d="M958.1 71.76V58.86C958.1 15.57 975.02 0 1011.01 0C1047 0 1063.9 15.56 1063.9 58.86V71.76C1063.9 115.05 1046.98 130.62 1011.01 130.62C975.04 130.62 958.1 115.05 958.1 71.76ZM1026.05 71.84V58.77C1026.05 36.2 1022.99 28.65 1011.02 28.65C999.05 28.65 995.96 36.2 995.96 58.77V71.84C995.96 94.41 999.08 101.98 1011.02 101.98C1022.96 101.98 1026.05 94.41 1026.05 71.84Z" fill="#F7F6F3"/>
<path d="M82.8498 175.29C90.4398 175.29 94.6398 178.04 94.6398 184.43C94.6398 188.27 92.7698 190.66 89.5998 192.22C94.1698 193.52 96.4099 197 96.4099 201.62C96.4099 209 90.2298 212.37 83.3198 212.37H65.3398V175.27H82.8498V175.29ZM81.8098 190.3C84.7698 190.3 86.7498 188.9 86.7498 185.88C86.7498 182.86 84.7798 181.62 81.2398 181.62H73.4998V190.3H81.8098ZM82.2698 206.04C86.0598 206.04 88.2498 204.48 88.2498 201.16C88.2498 197.58 86.1198 195.86 82.4298 195.86H73.4898V206.04H82.2698Z" fill="#F7F6F3"/>
<path d="M112.82 175.29V198.51C112.82 203.97 115.21 206.41 120.46 206.41C126.18 206.41 128.15 203.97 128.15 198.51V175.29H136.31V198.51C136.31 207.76 130.96 213.26 120.46 213.26C109.96 213.26 104.67 207.75 104.67 198.51V175.29H112.83H112.82Z" fill="#F7F6F3"/>
<path d="M173.869 186.35H165.969C165.709 182.61 163.529 180.74 158.699 180.74C155.689 180.74 153.039 182.04 153.039 184.95C153.039 187.65 154.599 188.17 162.909 190.25C168.419 191.65 175.119 193.52 175.119 201.37C175.119 208.38 169.559 213.27 159.689 213.27C151.839 213.27 143.899 209.53 143.899 200.33V200.07H151.799C151.799 205.32 156.109 206.93 159.959 206.93C163.809 206.93 167.229 205.68 167.229 202.31C167.229 199.97 165.409 198.52 160.839 197.37C158.089 196.64 155.699 196.12 153.309 195.34C147.699 193.47 145.149 190.3 145.149 185.57C145.149 178.09 152.219 174.4 159.019 174.4C166.969 174.4 173.879 177.93 173.879 186.35H173.869Z" fill="#F7F6F3"/>
<path d="M191.01 175.29V212.39H182.85V175.29H191.01Z" fill="#F7F6F3"/>
<path d="M209.19 175.29L224.67 200.18H224.77V175.29H232.41V212.39H224.25L208.82 187.56H208.72V212.39H201.08V175.29H209.18H209.19Z" fill="#F7F6F3"/>
<path d="M270.24 175.29V182.15H250.65V190.1H268.63V196.44H250.65V205.53H270.65V212.39H242.49V175.29H270.23H270.24Z" fill="#F7F6F3"/>
<path d="M306.71 186.35H298.81C298.55 182.61 296.37 180.74 291.54 180.74C288.53 180.74 285.88 182.04 285.88 184.95C285.88 187.65 287.44 188.17 295.75 190.25C301.26 191.65 307.96 193.52 307.96 201.37C307.96 208.38 302.4 213.27 292.53 213.27C284.68 213.27 276.74 209.53 276.74 200.33V200.07H284.64C284.64 205.32 288.95 206.93 292.8 206.93C296.65 206.93 300.07 205.68 300.07 202.31C300.07 199.97 298.25 198.52 293.68 197.37C290.93 196.64 288.54 196.12 286.15 195.34C280.54 193.47 277.99 190.3 277.99 185.57C277.99 178.09 285.06 174.4 291.86 174.4C299.81 174.4 306.72 177.93 306.72 186.35H306.71Z" fill="#F7F6F3"/>
<path d="M343.34 186.35H335.44C335.18 182.61 333 180.74 328.17 180.74C325.16 180.74 322.51 182.04 322.51 184.95C322.51 187.65 324.07 188.17 332.38 190.25C337.89 191.65 344.59 193.52 344.59 201.37C344.59 208.38 339.03 213.27 329.16 213.27C321.31 213.27 313.37 209.53 313.37 200.33V200.07H321.27C321.27 205.32 325.58 206.93 329.43 206.93C333.28 206.93 336.7 205.68 336.7 202.31C336.7 199.97 334.88 198.52 330.31 197.37C327.56 196.64 325.17 196.12 322.78 195.34C317.17 193.47 314.62 190.3 314.62 185.57C314.62 178.09 321.69 174.4 328.49 174.4C336.44 174.4 343.35 177.93 343.35 186.35H343.34Z" fill="#F7F6F3"/>
<path d="M397.42 175.29V182.15H377.83V190.1H395.81V196.44H377.83V205.53H397.83V212.39H369.67V175.29H397.41H397.42Z" fill="#F7F6F3"/>
<path d="M422.15 175.29C432.44 175.29 439.09 181.94 439.09 193.63C439.09 205.32 432.75 212.39 422.36 212.39H406.25V175.29H422.15ZM421.63 205.53C426.72 205.53 430.93 202.36 430.93 194.36C430.93 185.53 427.03 182.15 420.23 182.15H414.41V205.53H421.63Z" fill="#F7F6F3"/>
<path d="M455.809 175.29V212.39H447.649V175.29H455.809Z" fill="#F7F6F3"/>
<path d="M493.379 175.29V182.15H482.259V212.39H474.099V182.15H462.979V175.29H493.369H493.379Z" fill="#F7F6F3"/>
<path d="M508.7 175.29V212.39H500.54V175.29H508.7Z" fill="#F7F6F3"/>
<path d="M553.64 193.99C553.64 204.8 546.73 213.27 535.4 213.27C524.07 213.27 517.16 204.8 517.16 193.99C517.16 183.18 524.02 174.4 535.4 174.4C546.78 174.4 553.64 182.76 553.64 193.99ZM535.4 206.41C542.31 206.41 545.48 200.75 545.48 193.99C545.48 186.87 542.31 181.26 535.35 181.26C528.39 181.26 525.32 186.82 525.32 193.99C525.32 201.16 528.59 206.41 535.4 206.41Z" fill="#F7F6F3"/>
<path d="M570.21 175.29L585.69 200.18H585.79V175.29H593.43V212.39H585.27L569.84 187.56H569.74V212.39H562.1V175.29H570.21Z" fill="#F7F6F3"/>
<path d="M1.87012 174.41H40.8301V213.27H1.87012V174.41Z" fill="#C080FF"/>
</g>
<defs>
<clipPath id="clip0_261_120526">
<rect width="1063.9" height="213.27" fill="white"/>
</clipPath>
</defs>
</svg>
