<svg width="1064" height="214" viewBox="0 0 1064 214" fill="none" xmlns="http://www.w3.org/2000/svg">
<g clip-path="url(#clip0_261_120595)">
<path d="M0 3.08984H45.77C77.35 3.08984 95.98 12.9598 95.98 45.1498V46.2498C95.98 78.5398 77.39 88.3098 45.81 88.3098H35.82V127.53H0V3.08984ZM43.67 60.8098C53.45 60.8098 58.6 57.1798 58.6 46.3298V45.0798C58.6 34.2798 53.45 30.5798 43.67 30.5798H35.83V60.7998H43.67V60.8098Z" fill="#F7F6F3"/>
<path d="M100.93 71.76V58.86C100.93 15.56 117.85 0 153.84 0C189.83 0 206.73 15.56 206.73 58.86V71.76C206.73 115.05 189.81 130.62 153.84 130.62C117.87 130.62 100.93 115.05 100.93 71.76ZM168.87 71.84V58.77C168.87 36.2 165.81 28.65 153.84 28.65C141.87 28.65 138.78 36.2 138.78 58.77V71.84C138.78 94.41 141.9 101.98 153.84 101.98C165.78 101.98 168.87 94.41 168.87 71.84Z" fill="#F7F6F3"/>
<path d="M213.77 3.08984H256.91C289.3 3.08984 309.24 8.34984 309.24 36.5298V37.0098C309.17 53.8598 302.64 62.4799 291.7 67.1498C301.84 71.2098 305.35 76.0298 306.84 92.9998L308.14 108.5C309.29 121.82 309.77 124.57 311.51 127.53H274.87C273.71 124.4 273.11 120.96 272.8 116.89L271.22 97.1898C270.17 85.3598 268.39 82.3898 258.61 82.3898H249.6V127.52H213.78V3.08984H213.77ZM257.54 55.6898C268.7 55.6898 272.72 52.5198 272.72 43.2398V42.6998C272.72 33.4598 268.7 30.5098 257.54 30.5098H249.59V55.6898H257.54Z" fill="#F7F6F3"/>
<path d="M343.52 32.5898H312.2V3.08984H410.63V32.5998H379.35V127.54H343.53V32.5898H343.52Z" fill="#F7F6F3"/>
<path d="M425.88 3.08984H475.1L508.03 127.54H471.03L465.42 102.18H435.52L429.88 127.54H393.03L425.88 3.08984ZM459.58 73.8998L450.55 32.7398H450.32L441.3 73.8998H459.59H459.58Z" fill="#F7F6F3"/>
<path d="M513.45 3.08984H549.27V127.54H513.45V3.08984Z" fill="#F7F6F3"/>
<path d="M560.29 3.08984H602.69L629.04 85.0499H629.41L627.13 44.7498V3.08984H660.24V127.54H617.85L591.54 50.1298H591.17L593.39 90.5198V127.54H560.28V3.08984H560.29Z" fill="#F7F6F3"/>
<path d="M671.24 3.08984H753.91V32.5998H707.06V50.3998H748.46V79.9099H707.06V98.0398H754.52V127.55H671.24V3.08984Z" fill="#F7F6F3"/>
<path d="M763.42 3.08984H806.56C838.95 3.08984 858.89 8.34984 858.89 36.5298V37.0098C858.82 53.8598 852.29 62.4799 841.35 67.1498C851.49 71.2098 855 76.0298 856.49 92.9998L857.79 108.5C858.94 121.82 859.42 124.57 861.16 127.53H824.52C823.36 124.4 822.76 120.96 822.45 116.89L820.87 97.1898C819.82 85.3598 818.04 82.3898 808.26 82.3898H799.25V127.52H763.43V3.08984H763.42ZM807.2 55.6898C818.36 55.6898 822.38 52.5198 822.38 43.2398V42.6998C822.38 33.4598 818.36 30.5098 807.2 30.5098H799.25V55.6898H807.2Z" fill="#F7F6F3"/>
<path d="M870.36 93.27H904.71V127.53H870.36V93.27Z" fill="#F7F6F3"/>
<path d="M914.92 3.08984H949.85V28.7598H914.92V3.08984ZM914.92 35.5798H949.85V127.54H914.92V35.5798Z" fill="#F7F6F3"/>
<path d="M958.1 71.76V58.86C958.1 15.57 975.02 0 1011.01 0C1047 0 1063.9 15.56 1063.9 58.86V71.76C1063.9 115.05 1046.98 130.62 1011.01 130.62C975.04 130.62 958.1 115.05 958.1 71.76ZM1026.05 71.84V58.77C1026.05 36.2 1022.99 28.65 1011.02 28.65C999.05 28.65 995.96 36.2 995.96 58.77V71.84C995.96 94.41 999.08 101.98 1011.02 101.98C1022.96 101.98 1026.05 94.41 1026.05 71.84Z" fill="#F7F6F3"/>
<path d="M97.9702 187.76H90.0702C89.5002 184.12 86.0202 181.26 81.9702 181.26C75.3202 181.26 71.8902 186.51 71.8902 193.99C71.8902 200.95 75.1602 206.41 81.9702 206.41C86.6502 206.41 89.7102 203.4 90.3902 198.1H98.2902C97.4602 207.45 91.0702 213.27 81.9802 213.27C70.6502 213.27 63.7402 204.85 63.7402 193.99C63.7402 183.13 70.4902 174.4 81.9802 174.4C90.2902 174.4 97.0502 179.39 97.9802 187.75L97.9702 187.76Z" fill="#F7F6F3"/>
<path d="M141.4 193.99C141.4 204.8 134.49 213.27 123.16 213.27C111.83 213.27 104.92 204.8 104.92 193.99C104.92 183.18 111.78 174.4 123.16 174.4C134.54 174.4 141.4 182.76 141.4 193.99ZM123.16 206.41C130.07 206.41 133.24 200.75 133.24 193.99C133.24 186.87 130.07 181.26 123.11 181.26C116.15 181.26 113.08 186.82 113.08 193.99C113.08 201.16 116.35 206.41 123.16 206.41Z" fill="#F7F6F3"/>
<path d="M161.14 175.29L169.82 200.8H169.92L178.13 175.29H189.61V212.39H181.97V186.1H181.87L172.78 212.39H166.49L157.4 186.36H157.3V212.39H149.66V175.29H161.14Z" fill="#F7F6F3"/>
<path d="M210.96 175.29L219.64 200.8H219.74L227.95 175.29H239.43V212.39H231.79V186.1H231.69L222.6 212.39H216.31L207.22 186.36H207.12V212.39H199.48V175.29H210.96Z" fill="#F7F6F3"/>
<path d="M257.3 175.29V198.51C257.3 203.97 259.69 206.41 264.94 206.41C270.66 206.41 272.63 203.97 272.63 198.51V175.29H280.79V198.51C280.79 207.76 275.44 213.26 264.94 213.26C254.44 213.26 249.15 207.75 249.15 198.51V175.29H257.31H257.3Z" fill="#F7F6F3"/>
<path d="M298.6 175.29L314.08 200.18H314.18V175.29H321.82V212.39H313.66L298.23 187.56H298.13V212.39H290.49V175.29H298.59H298.6Z" fill="#F7F6F3"/>
<path d="M339.86 175.29V212.39H331.7V175.29H339.86Z" fill="#F7F6F3"/>
<path d="M377.211 175.29V182.15H366.091V212.39H357.931V182.15H346.811V175.29H377.201H377.211Z" fill="#F7F6F3"/>
<path d="M389.31 175.29L397.99 189.94L406.61 175.29H415.7L401.93 198.15V212.39H393.77V197.95L380.11 175.3H389.31V175.29Z" fill="#F7F6F3"/>
<path d="M466.41 175.29V182.15H446.82V190.1H464.8V196.44H446.82V205.53H466.82V212.39H438.66V175.29H466.4H466.41Z" fill="#F7F6F3"/>
<path d="M490.93 175.29C501.22 175.29 507.87 181.94 507.87 193.63C507.87 205.32 501.53 212.39 491.14 212.39H475.03V175.29H490.93ZM490.41 205.53C495.5 205.53 499.71 202.36 499.71 194.36C499.71 185.53 495.81 182.15 489.01 182.15H483.19V205.53H490.41Z" fill="#F7F6F3"/>
<path d="M524.391 175.29V212.39H516.23V175.29H524.391Z" fill="#F7F6F3"/>
<path d="M561.751 175.29V182.15H550.631V212.39H542.471V182.15H531.351V175.29H561.741H561.751Z" fill="#F7F6F3"/>
<path d="M576.86 175.29V212.39H568.7V175.29H576.86Z" fill="#F7F6F3"/>
<path d="M621.59 193.99C621.59 204.8 614.68 213.27 603.35 213.27C592.02 213.27 585.11 204.8 585.11 193.99C585.11 183.18 591.97 174.4 603.35 174.4C614.73 174.4 621.59 182.76 621.59 193.99ZM603.36 206.41C610.27 206.41 613.44 200.75 613.44 193.99C613.44 186.87 610.27 181.26 603.31 181.26C596.35 181.26 593.28 186.82 593.28 193.99C593.28 201.16 596.55 206.41 603.36 206.41Z" fill="#F7F6F3"/>
<path d="M637.961 175.29L653.441 200.18H653.541V175.29H661.181V212.39H653.021L637.591 187.56H637.491V212.39H629.851V175.29H637.961Z" fill="#F7F6F3"/>
<path d="M1.87012 174.41H40.8301V213.27H1.87012V174.41Z" fill="#FF80F2"/>
</g>
<defs>
<clipPath id="clip0_261_120595">
<rect width="1063.9" height="213.27" fill="white"/>
</clipPath>
</defs>
</svg>
